<?xml version="1.0" encoding="UTF-8" standalone="no"?>
<!DOCTYPE svg PUBLIC "-//W3C//DTD SVG 1.1//EN" "http://www.w3.org/Graphics/SVG/1.1/DTD/svg11.dtd">
<svg width="100%" height="100%" viewBox="0 0 140 140" version="1.1" xmlns="http://www.w3.org/2000/svg" xmlns:xlink="http://www.w3.org/1999/xlink" xml:space="preserve" style="fill-rule:evenodd;clip-rule:evenodd;stroke-linejoin:round;stroke-miterlimit:2;">
    <g id="Artboard1" transform="matrix(0.696007,0,0,0.845083,-104.991,-76.7326)">
        <g transform="matrix(1.43677,0,0,1.18332,-645.84,117.674)">
            <path d="M642.09,0.03L642.09,0L655.566,0C659.003,0 662.303,1.408 664.68,3.891L665.082,4.292L665.089,4.285L669.023,8.223L670.616,9.811L670.613,9.814L682.002,21.213L682.002,21.213L684.469,23.68C688.906,28.116 689.299,34.884 684.863,39.32L632.809,91.132C628.191,95.735 620.727,95.72 616.124,91.117L610.825,85.818L610.825,85.818L597.183,72.177L597.185,72.175L597.183,72.176L583.556,58.55L569.929,44.923L564.327,39.321C559.891,34.884 559.891,27.677 564.327,23.241L584.449,3.346C586.584,1.226 589.476,0.03 592.489,0.03L642.09,0.03Z" style="fill-rule:nonzero;" fill="currentColor" />
        </g>
    </g>
</svg>
