<?xml version="1.0" encoding="UTF-8" standalone="no"?>
<!DOCTYPE svg PUBLIC "-//W3C//DTD SVG 1.1//EN" "http://www.w3.org/Graphics/SVG/1.1/DTD/svg11.dtd">
<svg width="100%" height="100%" viewBox="0 0 140 140" version="1.1" xmlns="http://www.w3.org/2000/svg" xmlns:xlink="http://www.w3.org/1999/xlink" xml:space="preserve" style="fill-rule:evenodd;clip-rule:evenodd;stroke-linejoin:round;stroke-miterlimit:2;">
    <g id="Artboard1" transform="matrix(0.696007,0,0,0.845083,-104.991,-76.7326)">
        <g transform="matrix(1.43677,0,0,1.18332,164.33,111.992)">
            <g id="favicon">
                <g id="Mask_Group_3">
                    <path id="Path_151" d="M91.487,31.85C89.127,30.531 86.242,30.531 83.882,31.85L66.434,41.97L54.579,48.57L37.132,58.69C34.771,60.008 31.888,60.008 29.527,58.69L15.658,50.77C13.366,49.455 11.922,47.032 11.858,44.39L11.858,28.77C11.826,26.103 13.297,23.633 15.658,22.39L29.303,14.69C31.664,13.372 34.547,13.372 36.908,14.69L50.553,22.39C52.845,23.705 54.289,26.128 54.353,28.77L54.353,38.89L66.208,32.07L66.208,21.95C66.24,19.283 64.769,16.813 62.408,15.57L37.132,1.051C34.771,-0.267 31.888,-0.267 29.527,1.051L3.8,15.571C1.44,16.813 -0.031,19.283 0,21.95L0,51.21C-0.032,53.877 1.439,56.347 3.8,57.59L29.524,72.11C31.885,73.428 34.768,73.428 37.129,72.11L54.576,62.21L66.431,55.39L83.879,45.49C86.239,44.171 89.124,44.171 91.484,45.49L105.129,53.19C107.421,54.505 108.865,56.928 108.929,59.57L108.929,75.19C108.961,77.857 107.49,80.327 105.129,81.57L91.484,89.49C89.123,90.808 86.24,90.808 83.879,89.49L70.234,81.79C67.942,80.475 66.498,78.052 66.434,75.41L66.434,65.289L54.579,72.109L54.579,82.229C54.547,84.896 56.018,87.366 58.379,88.609L84.103,103.129C86.464,104.447 89.347,104.447 91.708,103.129L117.432,88.609C119.724,87.294 121.168,84.871 121.232,82.229L121.232,52.97C121.264,50.303 119.793,47.833 117.432,46.59L91.487,31.85Z" style="fill-rule:nonzero;" fill="currentColor"/>
                </g>
            </g>
        </g>
    </g>
</svg>
